<?xml version="1.0" ?><svg data-name="Layer 1" id="Layer_1" viewBox="0 0 100 100" xmlns="http://www.w3.org/2000/svg"><title/><path d="M78.5,6.917h-57a13.01474,13.01474,0,0,0-13,13v59a15.01672,15.01672,0,0,0,15,15h53a15.01673,15.01673,0,0,0,15-15v-59A13.01474,13.01474,0,0,0,78.5,6.917Zm-57,6h57a7.00818,7.00818,0,0,1,7,7V70.97266a8.13837,8.13837,0,0,1-8.12939,8.12891H22.62939A8.13837,8.13837,0,0,1,14.5,70.97266V19.917A7.00818,7.00818,0,0,1,21.5,12.917Zm55,75h-53a9.01015,9.01015,0,0,1-9-9V78.54858a11.08921,11.08921,0,0,0,8.12939,3.553H77.37061A11.0892,11.0892,0,0,0,85.5,78.54858V78.917A9.01015,9.01015,0,0,1,76.5,87.917Z" fill="#484949"/><path d="M50.46353,70.18647a25.07833,25.07833,0,0,1-12.1023-3.09117L24.5,71.5l4.5186-13.32913a24.58947,24.58947,0,0,1-3.5921-12.82763A25.0375,25.0375,0,1,1,50.46353,70.18647Zm0-45.73a20.99176,20.99176,0,0,0-21.0494,20.88677A20.67356,20.67356,0,0,0,33.4233,57.58947L30.794,65.346l8.0886-2.571a20.94207,20.94207,0,1,0,11.581-38.31856h0Zm12.64233,26.6084a3.12251,3.12251,0,0,0-1.17583-.7106c-0.61427-.3043-3.63233-1.7782-4.1939-1.9805a0.96172,0.96172,0,0,0-1.38153.3043c-0.40857.60973-1.585,1.9805-1.94366,2.3868a0.94339,0.94339,0,0,1-1.3294.153,16.79132,16.79132,0,0,1-4.93567-3.022,18.33551,18.33551,0,0,1-3.4136-4.21657,0.88193,0.88193,0,0,1,.26917-1.24157c0.276-.27313.6137-0.71117,0.92083-1.06647a4.11565,4.11565,0,0,0,.61313-1.016,1.1125,1.1125,0,0,0-.051-1.067c-0.15357-.3043-1.38153-3.30083-1.89267-4.5203-0.51113-1.21833-1.0217-1.01547-1.3804-1.01547-0.35813,0-.76727-0.051-1.1764-0.051a2.26486,2.26486,0,0,0-1.6371.7616,6.80928,6.80928,0,0,0-2.1471,5.079c0,2.99653,2.1981,5.89163,2.5058,6.29737,0.30657,0.40573,4.24433,6.75466,10.48277,9.193,6.2407,2.4378,6.2407,1.62463,7.3661,1.5232,1.1237-.10144,3.6295-1.47277,4.14233-2.89454a5.07349,5.07349,0,0,0,.35813-2.89623h0Z" fill="#484949"/></svg>